<?xml version="1.0" encoding="UTF-8" standalone="no"?>
<!DOCTYPE svg PUBLIC "-//W3C//DTD SVG 1.1//EN"
 "http://www.w3.org/Graphics/SVG/1.1/DTD/svg11.dtd">
<!-- Generated by graphviz version 3.0.0 (20220226.1711)
 -->
<!-- Title: dependencies Pages: 1 -->
<svg width="304pt" height="174pt"
 viewBox="0.00 0.00 304.00 173.80" xmlns="http://www.w3.org/2000/svg" xmlns:xlink="http://www.w3.org/1999/xlink">
<g id="graph0" class="graph" transform="scale(1 1) rotate(0) translate(4 169.8)">
<title>dependencies</title>
<polygon fill="white" stroke="transparent" points="-4,4 -4,-169.8 300,-169.8 300,4 -4,4"/>
<text text-anchor="middle" x="148" y="-8.2" font-family="sans-serif" font-size="14.00">dependencies</text>
<g id="clust1" class="cluster">
<title>cluster_OrderModule</title>
<polygon fill="none" stroke="black" stroke-dasharray="1,5" points="8,-32.8 8,-157.8 288,-157.8 288,-32.8 8,-32.8"/>
</g>
<g id="clust6" class="cluster">
<title>cluster_OrderModule_providers</title>
<polygon fill="none" stroke="black" points="138,-40.8 138,-92.8 280,-92.8 280,-40.8 138,-40.8"/>
</g>
<g id="clust3" class="cluster">
<title>cluster_OrderModule_imports</title>
<polygon fill="none" stroke="black" points="16,-40.8 16,-92.8 130,-92.8 130,-40.8 16,-40.8"/>
</g>
<!-- PrismaModule -->
<g id="node1" class="node">
<title>PrismaModule</title>
<polygon fill="#8dd3c7" stroke="black" points="122.44,-84.8 119.44,-88.8 98.44,-88.8 95.44,-84.8 23.56,-84.8 23.56,-48.8 122.44,-48.8 122.44,-84.8"/>
<text text-anchor="middle" x="73" y="-62.6" font-family="Times,serif" font-size="14.00">PrismaModule</text>
</g>
<!-- OrderModule -->
<g id="node2" class="node">
<title>OrderModule</title>
<polygon fill="#8dd3c7" stroke="black" points="187.2,-149.8 184.2,-153.8 163.2,-153.8 160.2,-149.8 94.8,-149.8 94.8,-113.8 187.2,-113.8 187.2,-149.8"/>
<text text-anchor="middle" x="141" y="-127.6" font-family="Times,serif" font-size="14.00">OrderModule</text>
</g>
<!-- PrismaModule&#45;&gt;OrderModule -->
<g id="edge1" class="edge">
<title>PrismaModule&#45;&gt;OrderModule</title>
<path fill="none" stroke="black" d="M108.56,-84.91C108.56,-84.91 108.56,-103.79 108.56,-103.79"/>
<polygon fill="black" stroke="black" points="105.06,-103.79 108.56,-113.79 112.06,-103.79 105.06,-103.79"/>
</g>
<!-- OrderService -->
<g id="node3" class="node">
<title>OrderService</title>
<ellipse fill="#fdb462" stroke="black" cx="209" cy="-66.8" rx="62.53" ry="18"/>
<text text-anchor="middle" x="209" y="-62.6" font-family="Times,serif" font-size="14.00">OrderService</text>
</g>
<!-- OrderService&#45;&gt;OrderModule -->
<g id="edge2" class="edge">
<title>OrderService&#45;&gt;OrderModule</title>
<path fill="none" stroke="black" d="M166.79,-80.27C166.79,-80.27 166.79,-103.66 166.79,-103.66"/>
<polygon fill="black" stroke="black" points="163.29,-103.66 166.79,-113.66 170.29,-103.66 163.29,-103.66"/>
</g>
</g>
</svg>
