<?xml version="1.0" encoding="UTF-8" standalone="no"?>
<!DOCTYPE svg PUBLIC "-//W3C//DTD SVG 1.1//EN"
 "http://www.w3.org/Graphics/SVG/1.1/DTD/svg11.dtd">
<!-- Generated by graphviz version 3.0.0 (20220226.1711)
 -->
<!-- Title: dependencies Pages: 1 -->
<svg width="843pt" height="174pt"
 viewBox="0.00 0.00 843.00 173.80" xmlns="http://www.w3.org/2000/svg" xmlns:xlink="http://www.w3.org/1999/xlink">
<g id="graph0" class="graph" transform="scale(1 1) rotate(0) translate(4 169.8)">
<title>dependencies</title>
<polygon fill="white" stroke="transparent" points="-4,4 -4,-169.8 839,-169.8 839,4 -4,4"/>
<text text-anchor="middle" x="417.5" y="-8.2" font-family="sans-serif" font-size="14.00">dependencies</text>
<g id="clust1" class="cluster">
<title>cluster_AppModule</title>
<polygon fill="none" stroke="black" stroke-dasharray="1,5" points="8,-32.8 8,-157.8 827,-157.8 827,-32.8 8,-32.8"/>
</g>
<g id="clust6" class="cluster">
<title>cluster_AppModule_providers</title>
<polygon fill="none" stroke="black" points="689,-40.8 689,-92.8 819,-92.8 819,-40.8 689,-40.8"/>
</g>
<g id="clust3" class="cluster">
<title>cluster_AppModule_imports</title>
<polygon fill="none" stroke="black" points="16,-40.8 16,-92.8 681,-92.8 681,-40.8 16,-40.8"/>
</g>
<!-- AuthModule -->
<g id="node1" class="node">
<title>AuthModule</title>
<polygon fill="#8dd3c7" stroke="black" points="672.55,-84.8 669.55,-88.8 648.55,-88.8 645.55,-84.8 585.45,-84.8 585.45,-48.8 672.55,-48.8 672.55,-84.8"/>
<text text-anchor="middle" x="629" y="-62.6" font-family="Times,serif" font-size="14.00">AuthModule</text>
</g>
<!-- AppModule -->
<g id="node7" class="node">
<title>AppModule</title>
<polygon fill="#8dd3c7" stroke="black" points="449.66,-149.8 446.66,-153.8 425.66,-153.8 422.66,-149.8 366.34,-149.8 366.34,-113.8 449.66,-113.8 449.66,-149.8"/>
<text text-anchor="middle" x="408" y="-127.6" font-family="Times,serif" font-size="14.00">AppModule</text>
</g>
<!-- AuthModule&#45;&gt;AppModule -->
<g id="edge1" class="edge">
<title>AuthModule&#45;&gt;AppModule</title>
<path fill="none" stroke="black" d="M629,-84.91C629,-104.14 629,-131.8 629,-131.8 629,-131.8 459.83,-131.8 459.83,-131.8"/>
<polygon fill="black" stroke="black" points="459.83,-128.3 449.83,-131.8 459.83,-135.3 459.83,-128.3"/>
</g>
<!-- OrderModule -->
<g id="node2" class="node">
<title>OrderModule</title>
<polygon fill="#8dd3c7" stroke="black" points="567.2,-84.8 564.2,-88.8 543.2,-88.8 540.2,-84.8 474.8,-84.8 474.8,-48.8 567.2,-48.8 567.2,-84.8"/>
<text text-anchor="middle" x="521" y="-62.6" font-family="Times,serif" font-size="14.00">OrderModule</text>
</g>
<!-- OrderModule&#45;&gt;AppModule -->
<g id="edge2" class="edge">
<title>OrderModule&#45;&gt;AppModule</title>
<path fill="none" stroke="black" d="M521,-84.83C521,-101.2 521,-122.8 521,-122.8 521,-122.8 459.76,-122.8 459.76,-122.8"/>
<polygon fill="black" stroke="black" points="459.76,-119.3 449.76,-122.8 459.76,-126.3 459.76,-119.3"/>
</g>
<!-- PrismaModule -->
<g id="node3" class="node">
<title>PrismaModule</title>
<polygon fill="#8dd3c7" stroke="black" points="457.44,-84.8 454.44,-88.8 433.44,-88.8 430.44,-84.8 358.56,-84.8 358.56,-48.8 457.44,-48.8 457.44,-84.8"/>
<text text-anchor="middle" x="408" y="-62.6" font-family="Times,serif" font-size="14.00">PrismaModule</text>
</g>
<!-- PrismaModule&#45;&gt;AppModule -->
<g id="edge3" class="edge">
<title>PrismaModule&#45;&gt;AppModule</title>
<path fill="none" stroke="black" d="M408,-84.91C408,-84.91 408,-103.79 408,-103.79"/>
<polygon fill="black" stroke="black" points="404.5,-103.79 408,-113.79 411.5,-103.79 404.5,-103.79"/>
</g>
<!-- ProductModule -->
<g id="node4" class="node">
<title>ProductModule</title>
<polygon fill="#8dd3c7" stroke="black" points="340.6,-84.8 337.6,-88.8 316.6,-88.8 313.6,-84.8 237.4,-84.8 237.4,-48.8 340.6,-48.8 340.6,-84.8"/>
<text text-anchor="middle" x="289" y="-62.6" font-family="Times,serif" font-size="14.00">ProductModule</text>
</g>
<!-- ProductModule&#45;&gt;AppModule -->
<g id="edge4" class="edge">
<title>ProductModule&#45;&gt;AppModule</title>
<path fill="none" stroke="black" d="M289,-84.83C289,-101.2 289,-122.8 289,-122.8 289,-122.8 356.05,-122.8 356.05,-122.8"/>
<polygon fill="black" stroke="black" points="356.05,-126.3 366.05,-122.8 356.05,-119.3 356.05,-126.3"/>
</g>
<!-- TableModule -->
<g id="node5" class="node">
<title>TableModule</title>
<polygon fill="#8dd3c7" stroke="black" points="219.92,-84.8 216.92,-88.8 195.92,-88.8 192.92,-84.8 128.08,-84.8 128.08,-48.8 219.92,-48.8 219.92,-84.8"/>
<text text-anchor="middle" x="174" y="-62.6" font-family="Times,serif" font-size="14.00">TableModule</text>
</g>
<!-- TableModule&#45;&gt;AppModule -->
<g id="edge5" class="edge">
<title>TableModule&#45;&gt;AppModule</title>
<path fill="none" stroke="black" d="M174,-84.91C174,-104.14 174,-131.8 174,-131.8 174,-131.8 356.17,-131.8 356.17,-131.8"/>
<polygon fill="black" stroke="black" points="356.17,-135.3 366.17,-131.8 356.17,-128.3 356.17,-135.3"/>
</g>
<!-- UserModule -->
<g id="node6" class="node">
<title>UserModule</title>
<polygon fill="#8dd3c7" stroke="black" points="109.99,-84.8 106.99,-88.8 85.99,-88.8 82.99,-84.8 24.01,-84.8 24.01,-48.8 109.99,-48.8 109.99,-84.8"/>
<text text-anchor="middle" x="67" y="-62.6" font-family="Times,serif" font-size="14.00">UserModule</text>
</g>
<!-- UserModule&#45;&gt;AppModule -->
<g id="edge6" class="edge">
<title>UserModule&#45;&gt;AppModule</title>
<path fill="none" stroke="black" d="M67,-85.09C67,-107.01 67,-140.8 67,-140.8 67,-140.8 356.19,-140.8 356.19,-140.8"/>
<polygon fill="black" stroke="black" points="356.19,-144.3 366.19,-140.8 356.19,-137.3 356.19,-144.3"/>
</g>
<!-- AppService -->
<g id="node8" class="node">
<title>AppService</title>
<ellipse fill="#fdb462" stroke="black" cx="754" cy="-66.8" rx="56.75" ry="18"/>
<text text-anchor="middle" x="754" y="-62.6" font-family="Times,serif" font-size="14.00">AppService</text>
</g>
<!-- AppService&#45;&gt;AppModule -->
<g id="edge7" class="edge">
<title>AppService&#45;&gt;AppModule</title>
<path fill="none" stroke="black" d="M754,-85.09C754,-107.01 754,-140.8 754,-140.8 754,-140.8 459.74,-140.8 459.74,-140.8"/>
<polygon fill="black" stroke="black" points="459.74,-137.3 449.74,-140.8 459.74,-144.3 459.74,-137.3"/>
</g>
</g>
</svg>
