<?xml version="1.0" encoding="UTF-8" standalone="no"?>
<!DOCTYPE svg PUBLIC "-//W3C//DTD SVG 1.1//EN"
 "http://www.w3.org/Graphics/SVG/1.1/DTD/svg11.dtd">
<!-- Generated by graphviz version 3.0.0 (20220226.1711)
 -->
<!-- Title: dependencies Pages: 1 -->
<svg width="1993pt" height="250pt"
 viewBox="0.00 0.00 1993.00 249.80" xmlns="http://www.w3.org/2000/svg" xmlns:xlink="http://www.w3.org/1999/xlink">
<g id="graph0" class="graph" transform="scale(1 1) rotate(0) translate(4 245.8)">
<title>dependencies</title>
<polygon fill="white" stroke="transparent" points="-4,4 -4,-245.8 1989,-245.8 1989,4 -4,4"/>
<text text-anchor="middle" x="992.5" y="-8.2" font-family="sans-serif" font-size="14.00">dependencies</text>
<g id="clust1" class="cluster">
<title>cluster_AppModule</title>
<polygon fill="none" stroke="black" stroke-dasharray="1,5" points="964,-32.8 964,-233.8 1679,-233.8 1679,-32.8 964,-32.8"/>
</g>
<g id="clust3" class="cluster">
<title>cluster_AppModule_imports</title>
<polygon fill="none" stroke="black" points="1110,-40.8 1110,-168.8 1659,-168.8 1659,-40.8 1110,-40.8"/>
</g>
<g id="clust6" class="cluster">
<title>cluster_AppModule_providers</title>
<polygon fill="none" stroke="black" points="972,-116.8 972,-168.8 1102,-168.8 1102,-116.8 972,-116.8"/>
</g>
<g id="clust7" class="cluster">
<title>cluster_AuthModule</title>
<polygon fill="none" stroke="black" stroke-dasharray="1,5" points="8,-32.8 8,-100.8 290,-100.8 290,-32.8 8,-32.8"/>
</g>
<g id="clust12" class="cluster">
<title>cluster_AuthModule_providers</title>
<polygon fill="none" stroke="black" points="16,-40.8 16,-92.8 282,-92.8 282,-40.8 16,-40.8"/>
</g>
<g id="clust13" class="cluster">
<title>cluster_OrderModule</title>
<polygon fill="none" stroke="black" stroke-dasharray="1,5" points="298,-32.8 298,-100.8 456,-100.8 456,-32.8 298,-32.8"/>
</g>
<g id="clust18" class="cluster">
<title>cluster_OrderModule_providers</title>
<polygon fill="none" stroke="black" points="306,-40.8 306,-92.8 448,-92.8 448,-40.8 306,-40.8"/>
</g>
<g id="clust19" class="cluster">
<title>cluster_PrismaModule</title>
<polygon fill="none" stroke="black" stroke-dasharray="1,5" points="1687,-108.8 1687,-176.8 1977,-176.8 1977,-108.8 1687,-108.8"/>
</g>
<g id="clust22" class="cluster">
<title>cluster_PrismaModule_exports</title>
<polygon fill="none" stroke="black" points="1853,-116.8 1853,-168.8 1969,-168.8 1969,-116.8 1853,-116.8"/>
</g>
<g id="clust24" class="cluster">
<title>cluster_PrismaModule_providers</title>
<polygon fill="none" stroke="black" points="1695,-116.8 1695,-168.8 1845,-168.8 1845,-116.8 1695,-116.8"/>
</g>
<g id="clust25" class="cluster">
<title>cluster_ProductModule</title>
<polygon fill="none" stroke="black" stroke-dasharray="1,5" points="464,-32.8 464,-100.8 636,-100.8 636,-32.8 464,-32.8"/>
</g>
<g id="clust30" class="cluster">
<title>cluster_ProductModule_providers</title>
<polygon fill="none" stroke="black" points="472,-40.8 472,-92.8 628,-92.8 628,-40.8 472,-40.8"/>
</g>
<g id="clust31" class="cluster">
<title>cluster_TableModule</title>
<polygon fill="none" stroke="black" stroke-dasharray="1,5" points="644,-32.8 644,-100.8 800,-100.8 800,-32.8 644,-32.8"/>
</g>
<g id="clust36" class="cluster">
<title>cluster_TableModule_providers</title>
<polygon fill="none" stroke="black" points="652,-40.8 652,-92.8 792,-92.8 792,-40.8 652,-40.8"/>
</g>
<g id="clust37" class="cluster">
<title>cluster_UserModule</title>
<polygon fill="none" stroke="black" stroke-dasharray="1,5" points="808,-32.8 808,-100.8 956,-100.8 956,-32.8 808,-32.8"/>
</g>
<g id="clust42" class="cluster">
<title>cluster_UserModule_providers</title>
<polygon fill="none" stroke="black" points="816,-40.8 816,-92.8 948,-92.8 948,-40.8 816,-40.8"/>
</g>
<!-- AuthModule -->
<g id="node1" class="node">
<title>AuthModule</title>
<polygon fill="#8dd3c7" stroke="black" points="1205.55,-160.8 1202.55,-164.8 1181.55,-164.8 1178.55,-160.8 1118.45,-160.8 1118.45,-124.8 1205.55,-124.8 1205.55,-160.8"/>
<text text-anchor="middle" x="1162" y="-138.6" font-family="Times,serif" font-size="14.00">AuthModule</text>
</g>
<!-- AppModule -->
<g id="node7" class="node">
<title>AppModule</title>
<polygon fill="#8dd3c7" stroke="black" points="1427.66,-225.8 1424.66,-229.8 1403.66,-229.8 1400.66,-225.8 1344.34,-225.8 1344.34,-189.8 1427.66,-189.8 1427.66,-225.8"/>
<text text-anchor="middle" x="1386" y="-203.6" font-family="Times,serif" font-size="14.00">AppModule</text>
</g>
<!-- AuthModule&#45;&gt;AppModule -->
<g id="edge1" class="edge">
<title>AuthModule&#45;&gt;AppModule</title>
<path fill="none" stroke="black" d="M1162,-160.91C1162,-180.14 1162,-207.8 1162,-207.8 1162,-207.8 1334.13,-207.8 1334.13,-207.8"/>
<polygon fill="black" stroke="black" points="1334.13,-211.3 1344.13,-207.8 1334.13,-204.3 1334.13,-211.3"/>
</g>
<!-- OrderModule -->
<g id="node2" class="node">
<title>OrderModule</title>
<polygon fill="#8dd3c7" stroke="black" points="1316.2,-160.8 1313.2,-164.8 1292.2,-164.8 1289.2,-160.8 1223.8,-160.8 1223.8,-124.8 1316.2,-124.8 1316.2,-160.8"/>
<text text-anchor="middle" x="1270" y="-138.6" font-family="Times,serif" font-size="14.00">OrderModule</text>
</g>
<!-- OrderModule&#45;&gt;AppModule -->
<g id="edge2" class="edge">
<title>OrderModule&#45;&gt;AppModule</title>
<path fill="none" stroke="black" d="M1270,-160.83C1270,-177.2 1270,-198.8 1270,-198.8 1270,-198.8 1334.12,-198.8 1334.12,-198.8"/>
<polygon fill="black" stroke="black" points="1334.12,-202.3 1344.12,-198.8 1334.12,-195.3 1334.12,-202.3"/>
</g>
<!-- PrismaModule -->
<g id="node3" class="node">
<title>PrismaModule</title>
<polygon fill="#8dd3c7" stroke="black" points="1600.44,-84.8 1597.44,-88.8 1576.44,-88.8 1573.44,-84.8 1501.56,-84.8 1501.56,-48.8 1600.44,-48.8 1600.44,-84.8"/>
<text text-anchor="middle" x="1551" y="-62.6" font-family="Times,serif" font-size="14.00">PrismaModule</text>
</g>
<!-- PrismaModule&#45;&gt;AuthModule -->
<g id="edge8" class="edge">
<title>PrismaModule&#45;&gt;AuthModule</title>
<path fill="none" stroke="black" d="M1501.49,-57.8C1401.28,-57.8 1183.89,-57.8 1183.89,-57.8 1183.89,-57.8 1183.89,-114.77 1183.89,-114.77"/>
<polygon fill="black" stroke="black" points="1180.39,-114.77 1183.89,-124.77 1187.39,-114.77 1180.39,-114.77"/>
</g>
<!-- PrismaModule&#45;&gt;OrderModule -->
<g id="edge11" class="edge">
<title>PrismaModule&#45;&gt;OrderModule</title>
<path fill="none" stroke="black" d="M1501.66,-66.8C1424.84,-66.8 1285.37,-66.8 1285.37,-66.8 1285.37,-66.8 1285.37,-114.79 1285.37,-114.79"/>
<polygon fill="black" stroke="black" points="1281.87,-114.79 1285.37,-124.79 1288.87,-114.79 1281.87,-114.79"/>
</g>
<!-- ProductModule -->
<g id="node4" class="node">
<title>ProductModule</title>
<polygon fill="#8dd3c7" stroke="black" points="1437.6,-160.8 1434.6,-164.8 1413.6,-164.8 1410.6,-160.8 1334.4,-160.8 1334.4,-124.8 1437.6,-124.8 1437.6,-160.8"/>
<text text-anchor="middle" x="1386" y="-138.6" font-family="Times,serif" font-size="14.00">ProductModule</text>
</g>
<!-- PrismaModule&#45;&gt;ProductModule -->
<g id="edge15" class="edge">
<title>PrismaModule&#45;&gt;ProductModule</title>
<path fill="none" stroke="black" d="M1501.37,-75.8C1458.43,-75.8 1403.18,-75.8 1403.18,-75.8 1403.18,-75.8 1403.18,-114.49 1403.18,-114.49"/>
<polygon fill="black" stroke="black" points="1399.68,-114.49 1403.18,-124.49 1406.68,-114.49 1399.68,-114.49"/>
</g>
<!-- TableModule -->
<g id="node5" class="node">
<title>TableModule</title>
<polygon fill="#8dd3c7" stroke="black" points="1546.92,-160.8 1543.92,-164.8 1522.92,-164.8 1519.92,-160.8 1455.08,-160.8 1455.08,-124.8 1546.92,-124.8 1546.92,-160.8"/>
<text text-anchor="middle" x="1501" y="-138.6" font-family="Times,serif" font-size="14.00">TableModule</text>
</g>
<!-- PrismaModule&#45;&gt;TableModule -->
<g id="edge17" class="edge">
<title>PrismaModule&#45;&gt;TableModule</title>
<path fill="none" stroke="black" d="M1524.24,-84.81C1524.24,-84.81 1524.24,-114.65 1524.24,-114.65"/>
<polygon fill="black" stroke="black" points="1520.74,-114.65 1524.24,-124.65 1527.74,-114.65 1520.74,-114.65"/>
</g>
<!-- UserModule -->
<g id="node6" class="node">
<title>UserModule</title>
<polygon fill="#8dd3c7" stroke="black" points="1650.99,-160.8 1647.99,-164.8 1626.99,-164.8 1623.99,-160.8 1565.01,-160.8 1565.01,-124.8 1650.99,-124.8 1650.99,-160.8"/>
<text text-anchor="middle" x="1608" y="-138.6" font-family="Times,serif" font-size="14.00">UserModule</text>
</g>
<!-- PrismaModule&#45;&gt;UserModule -->
<g id="edge19" class="edge">
<title>PrismaModule&#45;&gt;UserModule</title>
<path fill="none" stroke="black" d="M1588.48,-84.81C1588.48,-84.81 1588.48,-114.65 1588.48,-114.65"/>
<polygon fill="black" stroke="black" points="1584.98,-114.65 1588.48,-124.65 1591.98,-114.65 1584.98,-114.65"/>
</g>
<!-- PrismaModule&#45;&gt;AppModule -->
<g id="edge3" class="edge">
<title>PrismaModule&#45;&gt;AppModule</title>
<path fill="none" stroke="black" d="M1555.86,-84.94C1555.86,-123.03 1555.86,-207.8 1555.86,-207.8 1555.86,-207.8 1437.99,-207.8 1437.99,-207.8"/>
<polygon fill="black" stroke="black" points="1437.99,-204.3 1427.99,-207.8 1437.99,-211.3 1437.99,-204.3"/>
</g>
<!-- PrismaService  -->
<g id="node12" class="node">
<title>PrismaService </title>
<polygon fill="#fb8072" stroke="black" points="1961.37,-160.8 1860.63,-160.8 1860.63,-124.8 1961.37,-124.8 1961.37,-160.8"/>
<text text-anchor="middle" x="1911" y="-138.6" font-family="Times,serif" font-size="14.00">PrismaService </text>
</g>
<!-- PrismaModule&#45;&gt;PrismaService  -->
<g id="edge13" class="edge">
<title>PrismaModule&#45;&gt;PrismaService </title>
<path fill="none" stroke="black" stroke-dasharray="5,2" d="M1600.3,-60.8C1698.9,-60.8 1911,-60.8 1911,-60.8 1911,-60.8 1911,-114.6 1911,-114.6"/>
<polygon fill="black" stroke="black" points="1907.5,-114.6 1911,-124.6 1914.5,-114.6 1907.5,-114.6"/>
</g>
<!-- ProductModule&#45;&gt;AppModule -->
<g id="edge4" class="edge">
<title>ProductModule&#45;&gt;AppModule</title>
<path fill="none" stroke="black" d="M1386,-160.91C1386,-160.91 1386,-179.79 1386,-179.79"/>
<polygon fill="black" stroke="black" points="1382.5,-179.79 1386,-189.79 1389.5,-179.79 1382.5,-179.79"/>
</g>
<!-- TableModule&#45;&gt;AppModule -->
<g id="edge5" class="edge">
<title>TableModule&#45;&gt;AppModule</title>
<path fill="none" stroke="black" d="M1501,-160.83C1501,-177.2 1501,-198.8 1501,-198.8 1501,-198.8 1437.84,-198.8 1437.84,-198.8"/>
<polygon fill="black" stroke="black" points="1437.84,-195.3 1427.84,-198.8 1437.84,-202.3 1437.84,-195.3"/>
</g>
<!-- UserModule&#45;&gt;AppModule -->
<g id="edge6" class="edge">
<title>UserModule&#45;&gt;AppModule</title>
<path fill="none" stroke="black" d="M1608,-161.09C1608,-183.01 1608,-216.8 1608,-216.8 1608,-216.8 1437.76,-216.8 1437.76,-216.8"/>
<polygon fill="black" stroke="black" points="1437.76,-213.3 1427.76,-216.8 1437.76,-220.3 1437.76,-213.3"/>
</g>
<!-- AppService -->
<g id="node8" class="node">
<title>AppService</title>
<ellipse fill="#fdb462" stroke="black" cx="1037" cy="-142.8" rx="56.75" ry="18"/>
<text text-anchor="middle" x="1037" y="-138.6" font-family="Times,serif" font-size="14.00">AppService</text>
</g>
<!-- AppService&#45;&gt;AppModule -->
<g id="edge7" class="edge">
<title>AppService&#45;&gt;AppModule</title>
<path fill="none" stroke="black" d="M1037,-161.09C1037,-183.01 1037,-216.8 1037,-216.8 1037,-216.8 1334.25,-216.8 1334.25,-216.8"/>
<polygon fill="black" stroke="black" points="1334.25,-220.3 1344.25,-216.8 1334.25,-213.3 1334.25,-220.3"/>
</g>
<!-- AuthService -->
<g id="node9" class="node">
<title>AuthService</title>
<ellipse fill="#fdb462" stroke="black" cx="215" cy="-66.8" rx="59.11" ry="18"/>
<text text-anchor="middle" x="215" y="-62.6" font-family="Times,serif" font-size="14.00">AuthService</text>
</g>
<!-- AuthService&#45;&gt;AuthModule -->
<g id="edge9" class="edge">
<title>AuthService&#45;&gt;AuthModule</title>
<path fill="none" stroke="black" d="M215,-84.84C215,-98.09 215,-113.8 215,-113.8 215,-113.8 1162,-113.8 1162,-113.8 1162,-113.8 1162,-114.88 1162,-114.88"/>
<polygon fill="black" stroke="black" points="1158.5,-114.6 1162,-124.6 1165.5,-114.6 1158.5,-114.6"/>
</g>
<!-- JwtStrategy -->
<g id="node10" class="node">
<title>JwtStrategy</title>
<ellipse fill="#fdb462" stroke="black" cx="81" cy="-66.8" rx="56.77" ry="18"/>
<text text-anchor="middle" x="81" y="-62.6" font-family="Times,serif" font-size="14.00">JwtStrategy</text>
</g>
<!-- JwtStrategy&#45;&gt;AuthModule -->
<g id="edge10" class="edge">
<title>JwtStrategy&#45;&gt;AuthModule</title>
<path fill="none" stroke="black" d="M81,-85.04C81,-100.37 81,-119.8 81,-119.8 81,-119.8 1140.11,-119.8 1140.11,-119.8 1140.11,-119.8 1140.11,-120.29 1140.11,-120.29"/>
<polygon fill="black" stroke="black" points="1136.61,-114.68 1140.11,-124.68 1143.61,-114.68 1136.61,-114.68"/>
</g>
<!-- OrderService -->
<g id="node11" class="node">
<title>OrderService</title>
<ellipse fill="#fdb462" stroke="black" cx="377" cy="-66.8" rx="62.53" ry="18"/>
<text text-anchor="middle" x="377" y="-62.6" font-family="Times,serif" font-size="14.00">OrderService</text>
</g>
<!-- OrderService&#45;&gt;OrderModule -->
<g id="edge12" class="edge">
<title>OrderService&#45;&gt;OrderModule</title>
<path fill="none" stroke="black" d="M377,-84.9C377,-95.89 377,-107.8 377,-107.8 377,-107.8 1254.63,-107.8 1254.63,-107.8 1254.63,-107.8 1254.63,-114.48 1254.63,-114.48"/>
<polygon fill="black" stroke="black" points="1251.13,-114.48 1254.63,-124.48 1258.13,-114.48 1251.13,-114.48"/>
</g>
<!-- PrismaService -->
<g id="node13" class="node">
<title>PrismaService</title>
<ellipse fill="#fdb462" stroke="black" cx="1770" cy="-142.8" rx="66.64" ry="18"/>
<text text-anchor="middle" x="1770" y="-138.6" font-family="Times,serif" font-size="14.00">PrismaService</text>
</g>
<!-- PrismaService&#45;&gt;PrismaModule -->
<g id="edge14" class="edge">
<title>PrismaService&#45;&gt;PrismaModule</title>
<path fill="none" stroke="black" d="M1770,-124.77C1770,-104.03 1770,-72.8 1770,-72.8 1770,-72.8 1610.42,-72.8 1610.42,-72.8"/>
<polygon fill="black" stroke="black" points="1610.42,-69.3 1600.42,-72.8 1610.42,-76.3 1610.42,-69.3"/>
</g>
<!-- ProductService -->
<g id="node14" class="node">
<title>ProductService</title>
<ellipse fill="#fdb462" stroke="black" cx="550" cy="-66.8" rx="70.07" ry="18"/>
<text text-anchor="middle" x="550" y="-62.6" font-family="Times,serif" font-size="14.00">ProductService</text>
</g>
<!-- ProductService&#45;&gt;ProductModule -->
<g id="edge16" class="edge">
<title>ProductService&#45;&gt;ProductModule</title>
<path fill="none" stroke="black" d="M550,-84.8C550,-93.8 550,-102.8 550,-102.8 550,-102.8 1368.82,-102.8 1368.82,-102.8 1368.82,-102.8 1368.82,-114.67 1368.82,-114.67"/>
<polygon fill="black" stroke="black" points="1365.32,-114.67 1368.82,-124.67 1372.32,-114.67 1365.32,-114.67"/>
</g>
<!-- TableService -->
<g id="node15" class="node">
<title>TableService</title>
<ellipse fill="#fdb462" stroke="black" cx="722" cy="-66.8" rx="61.95" ry="18"/>
<text text-anchor="middle" x="722" y="-62.6" font-family="Times,serif" font-size="14.00">TableService</text>
</g>
<!-- TableService&#45;&gt;TableModule -->
<g id="edge18" class="edge">
<title>TableService&#45;&gt;TableModule</title>
<path fill="none" stroke="black" d="M722,-84.94C722,-91.26 722,-96.8 722,-96.8 722,-96.8 1478.53,-96.8 1478.53,-96.8 1478.53,-96.8 1478.53,-114.62 1478.53,-114.62"/>
<polygon fill="black" stroke="black" points="1475.03,-114.62 1478.53,-124.62 1482.03,-114.62 1475.03,-114.62"/>
</g>
<!-- UserService -->
<g id="node16" class="node">
<title>UserService</title>
<ellipse fill="#fdb462" stroke="black" cx="882" cy="-66.8" rx="58.46" ry="18"/>
<text text-anchor="middle" x="882" y="-62.6" font-family="Times,serif" font-size="14.00">UserService</text>
</g>
<!-- UserService&#45;&gt;UserModule -->
<g id="edge20" class="edge">
<title>UserService&#45;&gt;UserModule</title>
<path fill="none" stroke="black" d="M882,-84.99C882,-88.34 882,-90.8 882,-90.8 882,-90.8 1576.74,-90.8 1576.74,-90.8 1576.74,-90.8 1576.74,-114.61 1576.74,-114.61"/>
<polygon fill="black" stroke="black" points="1573.24,-114.61 1576.74,-124.61 1580.24,-114.61 1573.24,-114.61"/>
</g>
</g>
</svg>
